<svg width="353" height="406" viewBox="0 0 353 406" fill="none" xmlns="http://www.w3.org/2000/svg">
<path fill-rule="evenodd" clip-rule="evenodd" d="M226.713 33.6609C280.502 53.7735 330.453 89.656 347.151 144.637C363.526 198.557 341.249 255.142 307.741 300.468C276.693 342.468 229.816 367.323 177.984 373.471C124.098 379.863 65.0415 373.715 28.513 333.588C-7.24405 294.308 -0.822796 236.623 5.34801 183.828C11.7173 129.336 17.6254 69.1873 63.0159 38.3957C110.567 6.13806 172.925 13.5491 226.713 33.6609Z" fill="#EEFBFF"/>
<path d="M110.896 147.187C109.245 148.295 63.3578 167.875 58.2726 172.111C53.1873 176.348 50.525 182.873 51.8102 185.529C62.1885 186.149 106.171 161.348 109.78 156.709C113.474 152.129 110.896 147.187 110.896 147.187Z" fill="#FFD0CA"/>
<path d="M233.865 48.4437C233.865 48.4437 238.187 51.2252 243.332 55.3461C248.476 59.3639 251.152 62.7636 251.152 62.7636C251.152 62.7636 259.178 56.9944 270.702 44.7349C277.185 37.8325 268.644 30.5181 260.515 31.0332C247.036 31.9604 233.865 48.4437 233.865 48.4437Z" fill="#9FC8D5"/>
<path d="M244.463 238.208C248.476 234.293 251.563 230.997 251.563 230.997L269.982 230.172V236.251C269.982 236.251 269.467 238.826 266.586 240.578C263.705 242.432 258.046 245.523 255.062 246.656C250.74 248.201 243.023 249.849 239.627 249.953C235.717 250.056 234.071 248.304 236.129 246.244C239.524 242.947 240.656 241.814 244.463 238.208Z" fill="#305F6D"/>
<path d="M287.269 241.196L303.938 239.341C303.938 239.341 306.305 249.953 302.394 260.873C298.484 271.793 291.693 271.896 289.224 271.072C286.857 270.248 285.725 263.242 286.137 255.413C286.548 247.377 287.269 241.196 287.269 241.196Z" fill="#305F6D"/>
<path d="M265.557 96.0393C257.943 98.3058 250.843 101.087 250.843 101.087C250.843 101.087 246.007 136.939 244.463 158.573C242.817 183.092 248.271 231.409 248.271 231.409C248.271 231.409 249.094 236.663 258.149 235.941C265.043 235.323 270.29 229.245 270.29 229.245L266.483 173.511L274.406 138.999C273.274 119.219 267.101 115.613 265.557 96.0393Z" fill="url(#paint0_linear)"/>
<path d="M310.42 235.014C310.42 235.014 305.687 199.369 295.398 176.086C294.574 158.367 301.16 138.175 297.147 120.661C292.105 98.8208 284.285 99.3359 284.285 99.3359C284.799 95.6271 276.67 96.2453 268.336 97.8936C268.336 112.523 268.439 127.254 268.336 141.883L268.541 141.059C268.541 141.059 269.776 170.214 274.201 186.079C280.169 206.993 284.285 243.462 284.285 243.462C284.285 243.462 296.015 247.686 304.041 243.668C311.964 239.547 310.42 235.014 310.42 235.014Z" fill="url(#paint1_linear)"/>
<path d="M262.779 37.6267C264.322 38.2448 265.146 39.7901 265.146 39.7901L283.667 40.0992C283.667 40.0992 298.69 43.1898 302.188 54.8312C302.497 58.4369 301.983 66.9876 301.468 70.7994C300.954 71.1084 297.455 70.5933 297.147 71.3145C292.413 85.0162 293.031 101.706 294.06 115.51C292.31 119.013 256.296 119.013 249.094 114.995C252.901 88.2099 241.376 57.0976 262.779 37.6267Z" fill="#B7DBE6"/>
<path d="M265.66 58.7459C268.13 56.7885 269.056 52.9767 269.056 52.9767C269.056 52.9767 268.233 52.7707 266.895 52.2555C264.837 51.5344 263.705 51.2253 263.705 51.2253C263.705 51.2253 262.265 55.5522 262.779 57.3036C261.236 60.2912 257.531 69.357 257.531 69.357L261.236 78.1137L267.924 70.3872C267.924 70.3872 267.718 69.8721 267.101 67.9147C266.689 66.5754 265.969 61.2183 265.66 58.7459Z" fill="url(#paint2_linear)"/>
<path d="M248.991 64.7211C251.357 43.6018 262.059 34.1239 262.059 34.1239L267.101 37.1115C267.101 37.1115 261.133 50.2982 260.515 56.2734C259.589 66.2664 262.264 75.4352 262.264 75.4352C262.264 75.4352 269.364 56.8915 276.979 49.0619C284.079 41.8505 285.416 39.9961 285.416 39.9961L292.31 43.6018C292.31 43.6018 282.947 57.2005 284.284 72.4476C285.416 85.6343 294.368 85.8403 294.368 85.8403L298.999 122.104C298.999 122.104 287.783 129.624 278.522 130.242C276.053 130.448 267.512 130.448 264.734 130.036C264.734 126.534 262.676 119.116 262.676 119.116C262.676 119.116 260.207 124.988 260.207 128.903C249.917 127.049 246.418 119.116 246.418 119.116C246.418 119.116 248.991 101.602 248.991 92.1246C248.991 77.4956 248.579 68.6358 248.991 64.7211Z" fill="url(#paint3_linear)"/>
<path d="M267.204 37.2144L281.198 27.0154L284.182 43.4987C284.182 43.4987 281.3 46.8984 277.082 49.1648C273.583 51.0192 269.364 51.8434 265.454 52.9766C263.808 50.092 265.454 46.8984 265.454 46.8984L267.204 37.2144Z" fill="#FCB9B4"/>
<path d="M282.844 8.78046C285.931 12.6952 286.96 22.6883 282.639 29.6937C278.831 35.8749 270.188 39.3776 266.381 39.9957C259.487 41.129 252.078 22.0701 259.898 10.5318C267.41 -0.594428 278.831 3.73244 282.844 8.78046Z" fill="#FFD0CA"/>
<path d="M276.259 0.436014C280.169 1.05414 283.153 3.52664 285.314 6.41122C292.311 7.85351 291.59 17.9495 289.841 21.8643C286.445 29.2818 282.638 29.6939 282.638 29.6939C282.638 29.6939 283.667 25.6761 282.741 23.9247C282.021 22.3794 279.551 22.1734 278.831 24.8519C277.905 25.161 276.876 25.058 276.876 25.058L277.699 19.7009C277.699 19.7009 273.686 21.7613 269.056 19.0828C264.837 16.6103 260.618 18.0526 259.178 19.4948C258.252 17.2284 258.354 15.8891 258.457 14.0348C255.782 12.0774 253.107 10.429 253.518 9.08976C255.576 9.70788 258.046 9.70788 260.001 8.47163C258.252 7.13236 257.428 5.89611 256.399 4.45382C261.338 5.07195 271.628 -0.388152 276.259 0.436014Z" fill="#305F6D"/>
<path d="M266.689 39.7901C265.763 45.0441 265.455 52.9767 265.455 52.9767L257.429 48.4438L261.956 38.3478C262.471 38.7599 264.734 40.5112 266.689 39.7901Z" fill="#9FC8D5"/>
<path d="M282.741 35.7722C282.741 35.7722 285.211 38.6568 285.519 40.0991C286.343 44.529 282.227 50.5042 278.625 55.1401C274.921 53.1827 265.455 52.9767 265.455 52.9767C265.455 52.9767 270.805 47.8256 273.892 45.3531C281.198 39.584 282.741 35.7722 282.741 35.7722Z" fill="#9FC8D5"/>
<path d="M228.526 216.66L206.608 203.988C206.506 203.885 206.403 203.885 206.3 203.782C205.065 202.855 204.551 200.898 204.551 198.631C204.551 198.322 204.551 198.013 204.551 197.498V197.395V197.292C204.653 193.892 205.271 191.42 205.991 188.535C206.3 187.093 206.711 185.445 207.02 183.796L211.753 181.015L211.959 180.912L212.062 180.809L215.766 178.851L215.869 178.748C217.207 178.13 218.442 177.615 219.471 177.203L219.573 177.1C219.779 176.997 219.882 176.997 220.088 176.997C220.294 176.894 220.5 176.894 220.705 176.894H220.808C221.014 176.791 221.323 176.791 221.529 176.688C221.734 176.688 221.94 176.585 222.146 176.585C222.352 176.585 222.66 176.585 222.866 176.482C223.072 176.482 223.278 176.482 223.381 176.482C223.586 176.482 223.792 176.482 224.101 176.585H224.204C224.307 176.585 224.41 176.585 224.513 176.688C224.821 176.791 225.027 176.894 225.336 176.997C225.439 176.997 225.541 177.1 225.541 177.1C226.262 177.512 226.879 178.027 227.394 178.748C227.394 178.748 227.497 178.851 227.497 178.954C227.702 179.263 227.908 179.676 228.114 179.985C228.114 180.088 228.217 180.088 228.217 180.191V180.294C228.32 180.706 228.526 181.118 228.628 181.53L228.731 181.839C228.834 182.354 228.937 182.869 229.04 183.384V183.59C229.246 184.93 229.349 186.372 229.349 188.02C229.349 193.583 228.32 197.704 227.497 201.31C226.776 204.194 226.159 206.667 226.056 210.067V210.17V210.273C226.056 210.788 225.953 211.097 226.056 211.406C226.056 213.672 226.776 215.424 227.908 216.351C228.32 216.454 228.423 216.557 228.526 216.66Z" fill="url(#paint4_linear)"/>
<path d="M194.158 191.317L172.344 178.543V170.507V162.471V154.951C172.344 150.521 172.55 147.121 172.961 144.546C173.682 140.322 174.916 139.086 178.209 137.128C181.09 135.48 182.84 135.274 184.897 135.171C185.721 135.068 186.441 135.068 187.161 134.965C187.367 134.965 187.573 134.862 187.779 134.862C188.087 134.759 188.499 134.759 188.808 134.656C189.219 134.553 189.631 134.45 190.145 134.244C190.351 134.141 190.557 134.141 190.763 134.038C191.483 133.728 192.203 133.419 192.923 133.11C192.923 133.11 193.026 133.11 193.026 133.007C193.541 132.801 193.952 132.595 194.364 132.389C198.377 130.02 202.184 125.487 204.757 119.821C204.962 119.409 205.065 119.1 205.271 118.687C205.065 118.894 204.859 119.1 204.757 119.203C205.477 118.481 206.094 117.76 206.815 117.039C208.872 114.773 211.239 112.197 214.84 109.931C215.252 109.622 215.664 109.313 216.178 109.107C223.587 104.78 229.761 109.416 229.761 119.306C229.761 123.529 228.629 128.268 226.674 132.595C224.101 138.261 220.294 142.897 216.281 145.267C215.869 145.473 215.458 145.679 214.943 145.885H214.84C214.12 146.297 213.4 146.606 212.68 146.915L212.062 147.121C211.548 147.327 211.136 147.43 210.725 147.533C210.416 147.636 210.004 147.739 209.696 147.739C209.49 147.739 209.284 147.842 209.078 147.842C208.358 147.945 207.638 148.048 206.815 148.048C204.859 148.151 203.11 148.357 200.229 150.006C196.936 151.963 195.805 153.199 194.981 157.423C194.57 159.896 194.261 163.295 194.261 167.828V175.349V183.384L194.158 191.317Z" fill="url(#paint5_linear)"/>
<path d="M196.113 123.838L174.196 111.167C172.961 110.343 172.344 107.149 172.344 98.9074L172.241 75.4187L194.158 88.0903V111.682C194.158 119.924 194.775 123.117 196.113 123.838Z" fill="url(#paint6_linear)"/>
<path opacity="0.2" d="M228.526 216.66L206.608 203.988C206.506 203.885 206.403 203.885 206.3 203.782C205.065 202.855 204.551 200.898 204.551 198.631C204.551 198.322 204.551 198.013 204.551 197.498V197.395V197.292C204.653 193.892 205.271 191.42 205.991 188.535C206.3 187.093 206.711 185.445 207.02 183.796L211.753 181.015L211.959 180.912L212.062 180.809L215.766 178.851L215.869 178.748C217.207 178.13 218.442 177.615 219.471 177.203L219.573 177.1C219.779 176.997 219.882 176.997 220.088 176.997C220.294 176.894 220.5 176.894 220.705 176.894H220.808C221.014 176.791 221.323 176.791 221.529 176.688C221.734 176.688 221.94 176.585 222.146 176.585C222.352 176.585 222.66 176.585 222.866 176.482C223.072 176.482 223.278 176.482 223.381 176.482C223.586 176.482 223.792 176.482 224.101 176.585H224.204C224.307 176.585 224.41 176.585 224.513 176.688C224.821 176.791 225.027 176.894 225.336 176.997C225.439 176.997 225.541 177.1 225.541 177.1C226.262 177.512 226.879 178.027 227.394 178.748C227.394 178.748 227.497 178.851 227.497 178.954C227.702 179.263 227.908 179.676 228.114 179.985C228.114 180.088 228.217 180.088 228.217 180.191V180.294C228.32 180.706 228.526 181.118 228.628 181.53L228.731 181.839C228.834 182.354 228.937 182.869 229.04 183.384V183.59C229.246 184.93 229.349 186.372 229.349 188.02C229.349 193.583 228.32 197.704 227.497 201.31C226.776 204.194 226.159 206.667 226.056 210.067V210.17V210.273C226.056 210.788 225.953 211.097 226.056 211.406C226.056 213.672 226.776 215.424 227.908 216.351C228.32 216.454 228.423 216.557 228.526 216.66Z" fill="black"/>
<path d="M194.158 191.317L172.344 178.543V170.507V162.471V154.951C172.344 150.521 172.55 147.121 172.961 144.546C173.682 140.322 174.916 139.086 178.209 137.128C181.09 135.48 182.84 135.274 184.897 135.171C185.721 135.068 186.441 135.068 187.161 134.965C187.367 134.965 187.573 134.862 187.779 134.862C188.087 134.759 188.499 134.759 188.808 134.656C189.219 134.553 189.631 134.45 190.145 134.244C190.351 134.141 190.557 134.141 190.763 134.038C191.483 133.728 192.203 133.419 192.923 133.11C192.923 133.11 193.026 133.11 193.026 133.007C193.541 132.801 193.952 132.595 194.364 132.389C198.377 130.02 202.184 125.487 204.757 119.821C204.962 119.409 205.065 119.1 205.271 118.687C205.065 118.894 204.859 119.1 204.757 119.203C205.477 118.481 206.094 117.76 206.815 117.039C208.872 114.773 211.239 112.197 214.84 109.931C215.252 109.622 215.664 109.313 216.178 109.107C223.587 104.78 229.761 109.416 229.761 119.306C229.761 123.529 228.629 128.268 226.674 132.595C224.101 138.261 220.294 142.897 216.281 145.267C215.869 145.473 215.458 145.679 214.943 145.885H214.84C214.12 146.297 213.4 146.606 212.68 146.915L212.062 147.121C211.548 147.327 211.136 147.43 210.725 147.533C210.416 147.636 210.004 147.739 209.696 147.739C209.49 147.739 209.284 147.842 209.078 147.842C208.358 147.945 207.638 148.048 206.815 148.048C204.859 148.151 203.11 148.357 200.229 150.006C196.936 151.963 195.805 153.199 194.981 157.423C194.57 159.896 194.261 163.295 194.261 167.828V175.349V183.384L194.158 191.317Z" fill="#1E8FB1"/>
<path opacity="0.2" d="M196.113 123.838L174.196 111.167C172.961 110.343 172.344 107.149 172.344 98.9074L172.241 75.4187L194.158 88.0903V111.682C194.158 119.924 194.775 123.117 196.113 123.838Z" fill="black"/>
<path d="M228.731 216.763L228.526 216.66C228.423 216.557 228.32 216.557 228.217 216.454C226.982 215.527 226.365 213.776 226.365 211.509C226.365 211.2 226.365 210.891 226.365 210.376V210.273V210.17C226.468 206.77 227.085 204.298 227.805 201.413C228.629 197.807 229.658 193.79 229.658 188.123C229.658 186.475 229.555 185.033 229.349 183.694V183.488C229.246 182.972 229.143 182.457 229.04 181.942L228.937 181.633C228.834 181.221 228.629 180.809 228.526 180.397V180.294C228.526 180.191 228.423 180.191 228.423 180.088C228.217 179.676 228.011 179.367 227.805 179.058C227.805 178.955 227.703 178.955 227.703 178.852C227.188 178.13 226.571 177.615 225.85 177.203C225.747 177.203 225.747 177.1 225.645 177.1C225.336 176.997 225.027 176.894 224.821 176.791C224.718 176.791 224.616 176.791 224.513 176.688H224.41C224.101 176.688 223.895 176.585 223.69 176.585C223.484 176.585 223.381 176.585 223.175 176.585C222.969 176.585 222.661 176.585 222.455 176.688C222.249 176.688 222.043 176.688 221.837 176.791C221.632 176.791 221.323 176.894 221.117 176.997H221.014C220.808 176.997 220.603 177.1 220.397 177.1C220.191 177.1 220.088 177.203 219.882 177.203L219.779 177.306C218.648 177.615 217.516 178.13 216.178 178.852L216.075 178.955L212.371 180.912L212.268 181.015L212.062 181.118L207.329 183.9L194.364 191.42V183.385V175.349V167.828C194.364 163.399 194.57 159.999 195.084 157.423C195.804 153.199 197.039 151.963 200.332 150.006C203.213 148.357 204.962 148.151 206.917 148.048C207.741 147.945 208.461 147.945 209.181 147.842C209.387 147.842 209.593 147.739 209.798 147.739C210.107 147.636 210.519 147.636 210.827 147.533C211.239 147.43 211.651 147.327 212.165 147.121L212.782 146.915C213.503 146.606 214.223 146.297 214.943 145.885H215.046C215.561 145.679 215.972 145.473 216.384 145.267C220.397 142.897 224.204 138.364 226.776 132.595C228.731 128.268 229.863 123.53 229.863 119.306C229.863 109.313 223.792 104.78 216.281 109.107C215.766 109.313 215.355 109.622 214.943 109.931C211.342 112.3 208.975 114.773 206.917 117.039C206.197 117.76 205.58 118.585 204.859 119.203C203.83 120.233 202.699 121.263 201.258 122.087C201.052 122.19 200.949 122.293 200.744 122.396C200.538 122.499 200.435 122.602 200.229 122.705C199.612 123.014 199.097 123.426 198.48 123.633C198.274 123.736 198.171 123.736 197.965 123.839C197.76 123.942 197.657 123.942 197.451 123.942C197.348 123.942 197.142 124.045 197.039 124.045C196.731 124.045 196.525 123.942 196.216 123.839C194.878 123.117 194.261 120.027 194.261 111.682V88.0904L172.241 75.4188L239.536 36.477C239.741 36.374 240.05 36.1679 240.256 36.0649C240.462 35.9619 240.668 35.8589 240.976 35.7558C241.182 35.6528 241.388 35.6528 241.696 35.5498C241.902 35.4468 242.108 35.4468 242.314 35.4468C242.623 35.3438 242.931 35.3438 243.137 35.3438C244.269 35.3438 245.401 35.6528 246.327 36.1679L267.832 48.6334C268.45 48.9425 269.067 49.4576 269.582 50.0757C269.787 50.2818 269.89 50.4878 269.993 50.6938C270.096 50.7969 270.199 51.0029 270.302 51.2089C270.508 51.518 270.611 51.8271 270.713 52.2392C270.816 52.4452 270.816 52.6512 270.919 52.8573C271.228 53.9905 271.434 55.4328 271.434 56.8751V146.606L253.735 156.805C253.633 156.908 253.53 156.908 253.427 157.011L253.221 157.114L249.722 159.278C248.179 160.308 246.944 161.235 245.709 162.265L245.607 162.368C245.504 162.471 245.504 162.471 245.401 162.574C245.092 162.883 244.783 163.089 244.475 163.399L244.372 163.502C244.269 163.605 244.063 163.708 243.96 163.914C243.652 164.223 243.446 164.429 243.137 164.738C242.931 164.944 242.828 165.15 242.623 165.253C242.417 165.562 242.108 165.768 241.902 166.077C241.696 166.283 241.594 166.489 241.388 166.695C241.182 167.004 240.976 167.313 240.668 167.622C240.565 167.828 240.462 168.034 240.256 168.137L240.153 168.241L240.05 168.344C239.844 168.55 239.741 168.859 239.536 169.168C239.433 169.374 239.33 169.58 239.227 169.786L239.124 169.992C238.815 170.61 238.507 171.228 238.198 171.846L238.095 172.052C237.992 172.361 237.889 172.567 237.786 172.876C237.684 173.186 237.581 173.392 237.478 173.701L237.375 173.907C237.272 174.216 237.169 174.525 237.066 174.834C236.963 175.143 236.86 175.555 236.757 175.864C236.655 176.173 236.552 176.585 236.449 176.894C236.346 177.203 236.346 177.615 236.243 177.924C236.14 178.337 236.14 178.646 236.037 179.058V179.161C235.934 179.47 235.934 179.779 235.934 180.088C235.934 180.5 235.831 180.912 235.831 181.324V181.53C235.831 181.736 235.831 182.045 235.728 182.251C235.728 182.766 235.728 183.282 235.626 184.003V184.106C235.626 184.209 235.626 184.312 235.626 184.518C235.626 190.081 236.655 193.069 237.478 195.644C238.198 197.704 238.815 199.559 238.918 202.959V203.062V203.165C238.918 203.474 239.021 203.783 239.021 204.092C239.021 208.831 236.14 214.394 232.539 216.454C231.818 216.866 231.098 217.175 230.378 217.175C230.172 217.175 230.069 217.175 229.966 217.175H229.863C229.76 217.175 229.658 217.175 229.555 217.175C229.452 217.175 229.349 217.175 229.349 217.175C229.246 217.175 229.246 217.175 229.143 217.175C229.04 217.175 228.937 217.175 228.937 217.072C228.834 217.072 228.834 217.072 228.731 216.969C228.834 216.763 228.834 216.763 228.731 216.763Z" fill="url(#paint7_linear)"/>
<path opacity="0.3" d="M194.158 88.0904L172.241 75.4188L239.536 36.477C239.741 36.374 240.05 36.1679 240.256 36.0649C240.462 35.9619 240.667 35.8589 240.976 35.7558C241.182 35.6528 241.388 35.6528 241.696 35.5498C241.902 35.4468 242.108 35.4468 242.314 35.4468C242.623 35.3438 242.931 35.3438 243.137 35.3438C244.269 35.3438 245.401 35.6528 246.327 36.1679L267.729 48.5304C267.524 48.4274 267.318 48.3244 267.112 48.3244H267.009C266.803 48.2213 266.598 48.2213 266.392 48.2213C266.289 48.2213 266.289 48.2213 266.186 48.2213C266.083 48.2213 265.98 48.2213 265.774 48.2213C265.671 48.2213 265.569 48.2213 265.363 48.2213H265.26C265.054 48.2213 264.848 48.2213 264.745 48.2213C264.642 48.2213 264.437 48.2213 264.334 48.3244C264.025 48.3244 263.819 48.4274 263.511 48.5304C263.408 48.5304 263.202 48.6334 263.099 48.6334C262.893 48.7364 262.585 48.8395 262.276 48.9425C261.967 49.0455 261.658 49.2515 261.35 49.4576L194.158 88.0904Z" fill="white"/>
<path d="M112.972 347.393L92.5988 335.649C90.438 334.413 89.3061 331.219 89.3061 327.201L89.2032 237.676L109.783 249.524L109.68 339.358C109.68 343.273 110.914 346.054 112.972 347.393Z" fill="url(#paint8_linear)"/>
<path opacity="0.2" d="M112.972 347.393L92.5988 335.649C90.438 334.413 89.3061 331.219 89.3061 327.201L89.2032 237.676L109.783 249.524L109.68 339.358C109.68 343.273 110.914 346.054 112.972 347.393Z" fill="black"/>
<path d="M113.178 347.497L113.075 347.394C111.017 346.054 109.782 343.273 109.782 339.358L109.885 249.524L89.3058 237.677L107.107 227.271L107.313 227.168L109.782 225.726L112.663 223.769C112.663 223.769 112.766 223.769 112.766 223.666L112.869 223.563C113.075 223.46 113.178 223.357 113.281 223.254L113.487 223.151C113.692 223.048 113.795 222.945 114.001 222.739C114.207 222.635 114.31 222.532 114.516 222.326C114.618 222.223 114.824 222.12 114.927 222.017L115.133 221.914L115.236 221.811C115.545 221.605 115.75 221.399 115.956 221.193C116.059 221.09 116.265 220.987 116.368 220.781L116.471 220.678C116.985 220.266 117.397 219.751 117.911 219.236L118.117 219.03C118.323 218.824 118.426 218.618 118.631 218.412C118.734 218.309 118.837 218.206 118.837 218.103C118.94 218 119.043 217.897 119.043 217.794L119.146 217.691L119.249 217.587L119.352 217.484C119.558 217.278 119.763 217.072 119.866 216.763C119.969 216.557 120.175 216.351 120.278 216.145L120.381 216.042V215.939C120.587 215.63 120.792 215.424 120.895 215.115C121.101 214.909 121.204 214.6 121.307 214.394L121.41 214.291C121.513 214.085 121.615 213.879 121.718 213.673C121.821 213.57 121.821 213.467 121.924 213.364C122.027 213.055 122.233 212.849 122.336 212.539C122.439 212.333 122.542 212.23 122.542 212.024C122.644 211.818 122.747 211.715 122.747 211.509C122.85 211.406 122.85 211.2 122.953 211.097C123.056 210.994 123.056 210.788 123.159 210.685C123.262 210.273 123.365 209.964 123.571 209.552C123.673 209.243 123.776 208.934 123.879 208.625V208.522C123.982 208.213 124.085 207.801 124.085 207.491V207.388C124.188 207.079 124.188 206.873 124.291 206.564C124.394 206.152 124.497 205.74 124.497 205.328V205.122C124.497 205.019 124.497 204.916 124.497 204.813V204.71C124.497 204.607 124.497 204.504 124.497 204.401C124.599 203.886 124.599 203.371 124.599 202.959V202.752C124.599 202.546 124.599 202.34 124.599 202.134C124.599 201.413 124.702 200.589 124.702 199.868V199.765C124.702 199.559 124.702 199.353 124.702 199.147V198.941V198.632C124.702 198.426 124.702 198.117 124.702 197.911C124.702 197.807 124.702 197.807 124.702 197.704C124.702 197.601 124.702 197.601 124.702 197.498V197.292V197.189C124.702 196.777 124.702 196.468 124.599 196.056V195.953C124.599 195.644 124.497 195.335 124.497 195.026C124.291 193.378 123.982 192.038 123.673 190.905C123.468 190.081 123.159 189.36 122.953 188.639C122.439 187.093 121.924 185.651 121.718 183.694C121.718 183.385 121.615 182.973 121.615 182.663C121.615 182.251 121.513 181.839 121.513 181.427V181.324V181.221C121.513 181.118 121.513 181.015 121.513 180.912C121.513 180.706 121.513 180.5 121.513 180.294C121.513 175.555 124.394 169.992 127.995 167.931C128.407 167.725 128.715 167.519 129.127 167.416C129.436 167.313 129.641 167.313 129.95 167.313C130.259 167.313 130.465 167.313 130.67 167.313C130.773 167.313 130.876 167.313 131.082 167.416C131.391 167.519 131.802 167.622 132.111 167.828L152.587 179.676C152.69 179.779 152.793 179.779 152.896 179.882C154.131 180.809 154.748 182.56 154.748 184.827C154.748 185.136 154.748 185.445 154.645 185.96V186.063V186.166C154.542 189.566 153.925 192.038 153.205 194.923C152.999 195.644 152.896 196.365 152.69 197.189C152.587 197.498 152.587 197.704 152.485 198.014C152.279 198.838 152.176 199.662 151.97 200.486C151.97 200.795 151.867 201.104 151.867 201.31L166.376 193.172L186.955 205.019V217.278V223.151V228.714C186.955 235.307 186.441 239.737 185.412 242.209C184.691 243.961 183.559 244.991 181.09 246.433C178.209 248.082 176.46 248.288 174.504 248.391C173.784 248.494 173.064 248.494 172.344 248.597C172.035 248.597 171.829 248.7 171.52 248.7C171.212 248.803 171.006 248.803 170.697 248.906C170.183 249.009 169.668 249.215 169.154 249.318L168.742 249.421C168.022 249.73 167.199 250.039 166.479 250.451C166.376 250.451 166.273 250.554 166.17 250.554H166.067L165.964 250.657C165.655 250.76 165.347 250.966 165.038 251.172C162.363 252.718 159.687 255.293 157.424 258.693C156.395 260.238 155.469 261.886 154.748 263.535C154.028 265.08 153.411 266.831 152.896 268.377C153.308 267.965 153.616 267.553 154.028 267.14C155.263 265.801 156.292 264.771 157.424 263.741C158.453 262.814 159.482 262.092 160.613 261.474C162.26 260.547 163.597 259.723 164.523 260.341L184.897 272.498C185 272.498 185.103 272.601 185.103 272.704C185.206 272.704 185.206 272.807 185.309 272.91C185.309 272.91 185.412 272.91 185.412 273.013C185.514 273.116 185.514 273.116 185.514 273.219C185.514 273.219 185.514 273.219 185.514 273.322C185.617 273.425 185.617 273.528 185.72 273.631C186.235 274.764 186.543 276.721 186.749 280.018C186.749 280.43 186.749 280.739 186.749 281.151C186.749 282.181 186.749 283.315 186.749 284.654V308.246L119.558 347.085C118.323 347.806 117.088 348.218 115.956 348.321C115.545 348.321 115.133 348.321 114.721 348.321C114.618 348.321 114.413 348.321 114.31 348.218C114.104 347.909 113.59 347.703 113.178 347.497Z" fill="url(#paint9_linear)"/>
<path opacity="0.1" d="M164.73 260.238L185.103 272.394C184.177 271.776 182.84 272.6 181.193 273.528C180.061 274.146 179.032 274.97 178.003 275.794C176.769 276.824 175.843 277.854 174.608 279.194C172.55 281.46 170.183 284.036 166.582 286.302C166.17 286.611 165.656 286.92 165.244 287.126C157.733 291.453 151.662 286.817 151.662 276.927C151.662 274.146 152.176 271.158 153.102 268.171C153.514 267.758 153.823 267.346 154.234 267.037C155.469 265.698 156.498 264.668 157.63 263.638C158.659 262.71 159.688 261.989 160.82 261.371C162.363 260.444 163.701 259.62 164.73 260.238Z" fill="black"/>
<path d="M151.97 201.207L166.479 193.069L187.058 204.916L169.36 215.115L164.009 217.897H163.906H163.803C163.701 218 163.598 218 163.392 218.103L163.186 218.206C162.877 218.309 162.569 218.412 162.26 218.515C162.054 218.618 161.951 218.618 161.746 218.721L161.643 218.824C161.334 218.927 161.128 219.03 160.819 219.133C160.614 219.236 160.408 219.236 160.202 219.236C159.893 219.339 159.585 219.339 159.379 219.442H159.276C159.173 219.442 158.967 219.442 158.864 219.545C158.556 219.545 158.144 219.648 157.835 219.648C157.733 219.648 157.63 219.648 157.63 219.648C157.218 219.648 156.806 219.648 156.395 219.545C156.292 219.545 156.292 219.545 156.189 219.545C155.88 219.442 155.572 219.339 155.263 219.236C155.16 219.236 155.057 219.133 155.057 219.133C154.851 219.03 154.543 218.824 154.337 218.618C154.234 218.618 154.234 218.515 154.131 218.515C153.822 218.309 153.617 218 153.411 217.691L153.308 217.588C152.793 216.866 152.382 215.939 152.073 214.806C152.073 214.703 152.073 214.703 152.073 214.6C151.97 214.085 151.867 213.57 151.765 212.952V212.643C151.662 212.024 151.559 211.406 151.559 210.685C151.456 209.758 151.456 209.037 151.456 208.213C151.456 205.534 151.662 203.268 151.97 201.207Z" fill="#1E8FB1"/>
<path opacity="0.1" d="M109.783 249.421L89.2035 237.573L107.005 227.168L107.108 227.065H107.21L109.68 225.623L112.561 223.666L112.664 223.563L112.767 223.46C112.973 223.356 113.076 223.253 113.178 223.15L113.281 223.047C113.487 222.944 113.59 222.841 113.796 222.635C114.002 222.532 114.105 222.429 114.31 222.223C114.413 222.12 114.619 222.017 114.722 221.914L114.928 221.811L115.031 221.708C115.339 221.502 115.545 221.296 115.751 221.09C115.854 220.987 116.06 220.884 116.162 220.678L116.265 220.575C116.78 220.163 117.191 219.648 117.706 219.133L117.912 218.927C118.118 218.721 118.22 218.515 118.426 218.308C118.529 218.205 118.632 218.102 118.632 217.999C118.735 217.896 118.735 217.793 118.838 217.69L118.941 217.587L119.044 217.484L119.146 217.381C119.352 217.175 119.558 216.969 119.661 216.66C119.764 216.454 119.97 216.248 120.073 216.042L120.175 215.939V215.836C120.381 215.527 120.587 215.321 120.69 215.012C120.896 214.806 120.999 214.497 121.102 214.291V214.188C121.204 213.982 121.307 213.776 121.41 213.57C121.513 213.467 121.513 213.363 121.616 213.26C121.719 212.951 121.925 212.642 122.028 212.436C122.13 212.23 122.233 212.127 122.233 211.921C122.336 211.715 122.336 211.612 122.439 211.406C122.542 211.2 122.542 211.097 122.645 210.891C122.748 210.788 122.748 210.582 122.851 210.479C122.954 210.067 123.057 209.758 123.262 209.346C123.365 209.037 123.468 208.728 123.571 208.419V208.315C123.674 208.006 123.777 207.594 123.777 207.285V207.182C123.88 206.873 123.88 206.667 123.983 206.358C124.086 205.946 124.188 205.534 124.188 205.122V204.916C124.188 204.813 124.188 204.71 124.291 204.607V204.504C124.291 204.401 124.291 204.298 124.291 204.195C124.394 203.68 124.394 203.164 124.394 202.752V202.546C124.394 202.34 124.394 202.134 124.394 201.928C124.394 201.207 124.497 200.383 124.497 199.662V199.559C124.497 199.353 124.497 199.147 124.497 198.941V198.735V198.425C124.497 198.219 124.497 197.91 124.497 197.704C124.497 197.601 124.497 197.601 124.497 197.498C124.497 197.395 124.497 197.395 124.497 197.292V197.086V196.983C124.497 196.571 124.497 196.262 124.394 195.85V195.747C124.394 195.438 124.291 195.129 124.291 194.82C124.086 193.171 123.777 191.832 123.468 190.699C123.262 189.875 122.954 189.154 122.748 188.432C122.233 186.887 121.719 185.445 121.513 183.487C121.513 183.178 121.41 182.766 121.41 182.457C121.41 182.045 121.41 181.633 121.307 181.221V181.118V181.015C121.307 180.912 121.307 180.809 121.307 180.706C121.307 180.5 121.307 180.294 121.307 180.088C121.307 175.349 124.188 169.786 127.79 167.725C128.201 167.519 128.51 167.313 128.922 167.21C129.23 167.107 129.436 167.107 129.745 167.107C130.054 167.107 130.259 167.107 130.465 167.107C130.568 167.107 130.671 167.107 130.877 167.21C131.185 167.313 131.597 167.416 131.906 167.622L152.382 179.47C151.971 179.264 151.456 179.058 150.942 179.058C150.633 179.058 150.221 179.058 149.81 179.161C149.295 179.264 148.678 179.47 148.06 179.882C147.443 180.191 146.826 180.706 146.311 181.221C144.974 182.56 143.739 184.312 142.916 186.166C142.71 186.578 142.607 186.99 142.401 187.402C142.195 188.02 141.99 188.639 141.887 189.257C141.681 190.287 141.578 191.317 141.578 192.244C141.578 192.553 141.578 192.862 141.578 193.171V193.274V193.377C141.681 195.541 141.887 196.983 142.298 198.322C142.401 198.632 142.401 198.838 142.504 199.147C142.71 199.662 142.813 200.177 143.019 200.692C143.224 201.413 143.533 202.134 143.739 202.958C143.842 203.267 143.842 203.577 143.945 203.783C144.048 204.092 144.048 204.401 144.15 204.71C144.356 205.637 144.562 206.77 144.665 208.006V208.109C144.665 208.315 144.665 208.418 144.665 208.625C144.665 208.831 144.665 209.037 144.665 209.14V209.243V209.346C144.665 209.449 144.665 209.552 144.665 209.758C144.665 209.861 144.665 209.964 144.665 210.17C144.665 210.273 144.665 210.376 144.665 210.582V210.891V211.2C144.665 211.406 144.665 211.612 144.665 211.818V211.921C144.665 212.333 144.665 212.642 144.665 213.054C144.665 213.467 144.665 213.776 144.665 214.188C144.665 214.394 144.665 214.6 144.665 214.703V214.909C144.665 215.424 144.562 215.836 144.562 216.351C144.562 216.557 144.459 216.763 144.459 217.072V217.278C144.356 217.69 144.356 218.102 144.253 218.515C144.15 218.824 144.15 219.03 144.048 219.339V219.442C144.048 219.648 143.945 219.854 143.945 220.06C143.945 220.266 143.842 220.472 143.842 220.678C143.842 220.781 143.842 220.884 143.739 220.884C143.636 221.09 143.636 221.399 143.533 221.605C143.43 222.017 143.327 222.326 143.121 222.738C143.019 223.047 142.916 223.356 142.813 223.666C142.71 223.975 142.504 224.387 142.401 224.696C142.298 225.005 142.092 225.314 141.99 225.52C141.887 225.726 141.784 225.829 141.681 226.035C141.578 226.241 141.475 226.344 141.475 226.55L141.372 226.653C141.269 226.756 141.269 226.859 141.166 227.065L141.064 227.168C141.064 227.271 140.961 227.374 140.961 227.374C140.755 227.683 140.652 227.889 140.446 228.198V228.301L140.343 228.405C140.24 228.508 140.24 228.611 140.137 228.714C140.035 228.817 140.035 228.92 139.932 229.023C139.829 229.126 139.829 229.229 139.726 229.332C139.623 229.435 139.52 229.641 139.417 229.744L139.314 229.847L139.211 229.95C139.108 230.053 139.006 230.156 139.006 230.259C139.006 230.259 139.006 230.362 138.903 230.362C138.8 230.465 138.8 230.465 138.697 230.568C138.594 230.671 138.491 230.774 138.388 230.877C138.285 230.98 138.182 231.083 138.182 231.186L137.977 231.392C137.565 231.907 137.051 232.319 136.536 232.834L136.433 232.937C136.33 233.04 136.124 233.143 136.022 233.35C135.816 233.556 135.507 233.762 135.301 233.968L135.198 234.071L135.095 234.174L134.993 234.277C134.89 234.38 134.684 234.483 134.581 234.586C134.272 234.792 133.964 235.101 133.552 235.307L133.449 235.41C133.346 235.513 133.14 235.616 133.038 235.719C132.935 235.822 132.832 235.822 132.832 235.925L129.951 237.882L127.378 239.325L127.275 239.428L127.07 239.531L109.783 249.421Z" fill="black"/>
<path d="M109.68 240.148L87.7626 227.477L87.8655 137.643C87.8655 134.243 88.7916 130.637 90.3351 127.34L112.252 140.012C110.606 143.309 109.68 147.017 109.68 150.417V240.148Z" fill="#B8DEE9"/>
<path fill-rule="evenodd" clip-rule="evenodd" d="M151.581 204.289L159.688 209.036C158.865 208.521 158.556 207.079 158.659 204.194C158.659 200.623 159.258 198.08 159.911 195.315C159.973 195.049 160.036 194.781 160.099 194.511C160.216 193.869 160.365 193.228 160.51 192.605C160.622 192.127 160.73 191.661 160.82 191.214C160.82 190.802 160.923 190.39 161.025 189.978C161.025 189.566 161.128 189.153 161.231 188.741L161.54 186.578V186.475C161.643 186.269 161.643 186.166 161.643 185.96C161.652 185.865 161.66 185.77 161.669 185.677C161.762 184.654 161.849 183.71 161.849 182.766V182.457V182.354V182.251C161.952 181.839 161.952 181.427 161.952 180.912C161.952 176.07 160.511 172.361 157.939 170.404C155.366 168.446 151.971 168.549 148.369 170.61C146.711 171.559 145.113 172.887 143.634 174.49L152.588 179.67C152.639 179.722 152.691 179.748 152.742 179.773C152.794 179.799 152.845 179.825 152.896 179.876C154.131 180.804 154.749 182.555 154.749 184.821C154.749 185.13 154.749 185.44 154.646 185.955V186.058V186.161C154.543 189.56 153.925 192.033 153.205 194.917C153.09 195.319 153.008 195.721 152.921 196.141C152.853 196.475 152.782 196.819 152.691 197.184C152.639 197.338 152.614 197.467 152.588 197.596C152.562 197.725 152.536 197.854 152.485 198.008C152.382 198.42 152.305 198.832 152.228 199.244C152.15 199.656 152.073 200.068 151.97 200.481C151.97 200.643 151.954 200.726 151.933 200.84C151.913 200.943 151.889 201.071 151.868 201.305C151.854 201.457 151.736 202.678 151.581 204.289Z" fill="#7AB2C4"/>
<path opacity="0.1" d="M109.695 249.314L89.3057 237.679L97.3071 232.999L109.68 240.145L109.592 225.516L112.473 223.559L112.576 223.456L112.679 223.353C112.885 223.25 112.988 223.147 113.091 223.044L113.194 222.941C113.399 222.838 113.502 222.735 113.708 222.529C113.914 222.426 114.017 222.323 114.222 222.117C114.325 222.014 114.531 221.911 114.634 221.808L114.84 221.705L114.943 221.602C115.251 221.396 115.457 221.19 115.663 220.983C115.766 220.88 115.972 220.777 116.075 220.571L116.178 220.468C116.692 220.056 117.104 219.541 117.618 219.026L117.824 218.82C118.03 218.614 118.133 218.408 118.338 218.202C118.441 218.099 118.544 217.996 118.544 217.893C118.647 217.79 118.647 217.687 118.75 217.584L118.853 217.481L118.956 217.378L119.059 217.275C119.264 217.069 119.47 216.863 119.573 216.554C119.676 216.348 119.882 216.142 119.985 215.935L120.088 215.832V215.729C120.293 215.42 120.499 215.214 120.602 214.905C120.808 214.699 120.911 214.39 121.014 214.184V214.081C121.117 213.875 121.219 213.669 121.322 213.463C121.425 213.36 121.425 213.257 121.528 213.154C121.631 212.845 121.837 212.536 121.94 212.33C122.043 212.124 122.146 212.021 122.146 211.815C122.248 211.609 122.248 211.506 122.351 211.3C122.454 211.093 122.454 210.99 122.557 210.784C122.66 210.681 122.66 210.475 122.763 210.372C122.866 209.96 122.969 209.651 123.175 209.239C123.277 208.93 123.38 208.621 123.483 208.312V208.209C123.586 207.9 123.689 207.488 123.689 207.179V207.076C123.792 206.767 123.792 206.561 123.895 206.252C123.998 205.839 124.101 205.427 124.101 205.015V204.809C124.101 204.706 124.101 204.603 124.203 204.5V204.397C124.203 204.294 124.203 204.191 124.203 204.088C124.306 203.573 124.306 203.058 124.306 202.646V202.44C124.306 202.234 124.306 202.028 124.306 201.822C124.306 201.1 124.409 200.276 124.409 199.555V199.452C124.409 199.246 124.409 199.04 124.409 198.834V198.628V198.319C124.409 198.113 124.409 197.804 124.409 197.598C124.409 197.495 124.409 197.495 124.409 197.392C124.409 197.289 124.409 197.289 124.409 197.186V196.98V196.877C124.409 196.465 124.409 196.155 124.306 195.743V195.64C124.306 195.331 124.203 195.022 124.203 194.713C123.998 193.065 123.689 191.726 123.38 190.592C123.174 189.768 122.866 189.047 122.66 188.326C122.146 186.781 121.631 185.338 121.425 183.381C121.425 183.072 121.322 182.66 121.322 182.351C121.322 181.939 121.322 181.527 121.219 181.114V181.011V180.908C121.219 180.805 121.219 180.702 121.219 180.599C121.219 180.393 121.219 180.187 121.219 179.981C121.219 175.242 124.101 169.679 127.702 167.619C128.114 167.413 128.422 167.207 128.834 167.104C129.143 167.001 129.348 167.001 129.657 167.001C129.966 167.001 130.171 167.001 130.377 167.001C130.48 167.001 130.583 167.001 130.789 167.104C131.098 167.207 131.509 167.31 131.818 167.516L152.294 179.363C151.883 179.157 151.368 178.951 150.854 178.951C150.545 178.951 150.133 178.951 149.722 179.054C149.207 179.157 148.59 179.363 147.973 179.775C147.355 180.084 146.738 180.599 146.223 181.114C144.886 182.454 143.651 184.205 142.828 186.059C142.622 186.472 142.519 186.884 142.313 187.296C142.108 187.914 141.902 188.532 141.799 189.15C141.593 190.18 141.49 191.21 141.49 192.138C141.49 192.447 141.49 192.756 141.49 193.065V193.168V193.271C141.593 195.434 141.799 196.877 142.21 198.216C142.313 198.525 142.313 198.731 142.416 199.04C142.622 199.555 142.725 200.07 142.931 200.585C143.136 201.307 143.445 202.028 143.651 202.852C143.754 203.161 143.754 203.47 143.857 203.676C143.96 203.985 143.96 204.294 144.063 204.603C144.268 205.53 144.474 206.664 144.577 207.9V208.003C144.577 208.209 144.577 208.312 144.577 208.518C144.577 208.724 144.577 208.93 144.577 209.033V209.136V209.239C144.577 209.342 144.577 209.445 144.577 209.651C144.577 209.754 144.577 209.857 144.577 210.063C144.577 210.166 144.577 210.269 144.577 210.475V210.784V211.093C144.577 211.3 144.577 211.506 144.577 211.712V211.815C144.577 212.227 144.577 212.536 144.577 212.948C144.577 213.36 144.577 213.669 144.577 214.081C144.577 214.287 144.577 214.493 144.577 214.596V214.802C144.577 215.317 144.474 215.729 144.474 216.245C144.474 216.451 144.371 216.657 144.371 216.966V217.172C144.268 217.584 144.268 217.996 144.165 218.408C144.063 218.717 144.063 218.923 143.96 219.232V219.335C143.96 219.541 143.857 219.747 143.857 219.953C143.857 220.159 143.754 220.365 143.754 220.571C143.754 220.674 143.754 220.777 143.651 220.777C143.548 220.983 143.548 221.293 143.445 221.499C143.342 221.911 143.239 222.22 143.034 222.632C142.931 222.941 142.828 223.25 142.725 223.559C142.622 223.868 142.416 224.28 142.313 224.589C142.21 224.898 142.005 225.207 141.902 225.413C141.799 225.619 141.696 225.722 141.593 225.928C141.49 226.135 141.387 226.238 141.387 226.444L141.284 226.547C141.181 226.65 141.181 226.753 141.079 226.959L140.976 227.062C140.976 227.165 140.873 227.268 140.873 227.268C140.667 227.577 140.564 227.783 140.358 228.092V228.195L140.255 228.298C140.152 228.401 140.152 228.504 140.05 228.607C139.947 228.71 139.947 228.813 139.844 228.916C139.741 229.019 139.741 229.122 139.638 229.225C139.535 229.328 139.432 229.534 139.329 229.637L139.226 229.74L139.124 229.843C139.021 229.946 138.918 230.049 138.918 230.152C138.918 230.152 138.918 230.255 138.815 230.255C138.712 230.358 138.712 230.358 138.609 230.461C138.506 230.564 138.403 230.667 138.3 230.77C138.197 230.873 138.095 230.976 138.095 231.08L137.889 231.286C137.477 231.801 136.963 232.213 136.448 232.728L136.345 232.831C136.242 232.934 136.037 233.037 135.934 233.243C135.728 233.449 135.419 233.655 135.213 233.861L135.111 233.964L135.008 234.067L134.905 234.17C134.802 234.273 134.596 234.376 134.493 234.479C134.184 234.685 133.876 234.994 133.464 235.2L133.361 235.303C133.258 235.406 133.053 235.509 132.95 235.612C132.847 235.715 132.744 235.715 132.744 235.818L129.863 237.776L127.29 239.218L127.187 239.321L126.982 239.424L109.695 249.314Z" fill="black"/>
<path opacity="0.1" d="M109.68 240.148L87.7626 227.477L87.8655 137.643C87.8655 134.243 88.7916 130.637 90.3351 127.34L112.252 140.012C110.606 143.309 109.68 147.017 109.68 150.417V240.148Z" fill="#263238"/>
<path fill-rule="evenodd" clip-rule="evenodd" d="M187.111 111.938L187.058 111.991V92.2111L165.141 79.5396L98.0524 118.378C97.7437 118.481 97.5379 118.584 97.3321 118.79C97.1263 118.893 97.0234 118.996 96.9205 119.1C96.8176 119.1 96.7147 119.203 96.6118 119.306C96.5089 119.306 96.406 119.409 96.3031 119.512L96.3031 119.512C96.2517 119.563 96.2002 119.589 96.1488 119.615C96.0973 119.64 96.0459 119.666 95.9944 119.718H95.8915L95.7886 119.821L95.4799 120.13L95.377 120.233L94.9654 120.645L94.7597 120.851L94.6567 120.954L94.451 121.16C94.451 121.263 94.3481 121.366 94.2452 121.469C94.1423 121.572 94.0394 121.701 93.9365 121.83C93.8336 121.958 93.7307 122.087 93.6278 122.19L93.5249 122.293C93.4734 122.345 93.422 122.422 93.3705 122.499C93.3191 122.576 93.2676 122.654 93.2162 122.705C93.1133 122.808 93.0104 122.911 92.9075 123.117C92.8561 123.169 92.8303 123.22 92.8046 123.272C92.7789 123.323 92.7532 123.375 92.7017 123.426C92.4959 123.632 92.2901 123.941 92.0843 124.251L91.9814 124.354L91.8785 124.56L91.2612 125.487C91.2097 125.641 91.1325 125.77 91.0554 125.899C90.9782 126.028 90.901 126.156 90.8496 126.311L90.5409 126.929C90.5016 127.008 90.4773 127.071 90.4565 127.126L90.4565 127.126C90.423 127.214 90.3987 127.277 90.3351 127.341L112.252 140.013C110.606 143.309 109.68 147.018 109.68 150.418V240.149L127.481 230.259C138.285 223.975 138.285 221.193 138.285 216.145C138.285 215.424 138.285 214.6 138.182 213.879V213.673V213.57V213.466V213.26C137.988 211.225 137.521 209.827 137.038 208.382L136.947 208.109C136.124 205.74 135.301 203.061 135.095 198.425C134.992 197.91 134.992 197.292 134.992 196.674V195.644V194.717C135.095 193.687 135.198 192.759 135.404 191.729C135.455 191.523 135.507 191.291 135.558 191.06L135.558 191.059C135.61 190.828 135.661 190.596 135.713 190.39C135.713 190.39 135.816 190.287 135.816 190.184C135.867 189.926 135.918 189.694 135.97 189.463C136.021 189.231 136.073 188.999 136.124 188.742L136.433 187.505C136.844 186.269 137.256 185.136 137.771 184.003C140.24 178.233 144.15 173.288 148.472 170.713C152.073 168.652 155.469 168.549 158.041 170.507C160.614 172.464 162.054 176.173 162.054 181.015C162.054 181.287 162.026 181.53 161.998 181.76V181.76C161.974 181.965 161.951 182.16 161.951 182.354V182.457V182.56V182.869C161.951 184.002 161.848 185.033 161.746 186.063L161.746 186.063C161.643 186.269 161.643 186.372 161.643 186.578V186.681L161.334 188.845C161.282 189.051 161.257 189.257 161.231 189.463C161.205 189.669 161.18 189.875 161.128 190.081C161.128 190.493 161.025 190.905 160.922 191.317C160.889 191.486 160.855 191.657 160.821 191.831L160.82 191.833C160.646 192.72 160.46 193.667 160.202 194.614C159.379 197.704 158.762 200.383 158.762 204.298C158.762 207.285 159.07 208.728 159.893 209.243L159.894 209.243C160.202 209.346 160.511 209.449 160.819 209.449H161.231C162.877 209.243 165.656 208.109 169.566 205.843L175.225 202.546L181.09 199.147L187.264 195.541V171.949V171.846L187.47 164.635V164.532V164.429V163.914V163.707C187.47 163.501 187.495 163.27 187.521 163.038C187.547 162.806 187.573 162.574 187.573 162.368C187.573 162.265 187.598 162.162 187.624 162.059C187.65 161.956 187.676 161.853 187.676 161.75V161.544C187.727 161.338 187.753 161.132 187.778 160.926C187.804 160.72 187.83 160.514 187.881 160.308C187.881 160.153 187.907 160.025 187.933 159.896L187.933 159.896L187.933 159.896C187.959 159.767 187.984 159.638 187.984 159.484C187.984 158.969 188.087 158.557 188.19 158.144L188.19 158.144V158.041C188.19 157.938 188.216 157.861 188.241 157.784C188.267 157.707 188.293 157.629 188.293 157.526C188.344 157.217 188.422 156.934 188.499 156.651C188.576 156.367 188.653 156.084 188.705 155.775C188.807 155.775 188.807 155.672 188.807 155.569C188.91 155.26 189.013 154.925 189.116 154.59C189.219 154.255 189.322 153.921 189.425 153.611C189.425 153.56 189.451 153.508 189.476 153.457C189.502 153.405 189.528 153.354 189.528 153.302C189.733 152.684 189.939 152.169 190.145 151.654L190.145 151.654L190.145 151.654C190.145 151.603 190.171 151.551 190.197 151.5C190.222 151.448 190.248 151.397 190.248 151.345V151.242C190.313 151.111 190.378 150.971 190.447 150.823C190.594 150.504 190.757 150.152 190.968 149.8V149.697L191.174 149.388C191.367 149.001 191.601 148.654 191.824 148.322L191.825 148.322C191.958 148.124 192.088 147.932 192.203 147.739C193.026 146.503 193.849 145.473 194.878 144.443L194.981 144.34C195.393 143.825 195.907 143.412 196.422 143L196.422 143L196.525 142.897C197.657 141.97 198.788 141.249 200.023 140.528C204.205 138.179 206.769 137.956 209.119 137.752L209.181 137.746C211.033 137.643 212.68 137.437 215.149 136.201L215.972 135.789C217.619 134.759 219.265 133.007 220.5 130.638C221.734 128.371 222.352 125.796 222.352 123.529C222.352 123.117 222.352 122.602 222.249 122.19V122.19C222.249 121.881 222.249 121.572 222.146 121.366C221.94 120.13 221.426 119.306 220.705 118.687C220.654 118.687 220.628 118.662 220.603 118.636C220.577 118.61 220.551 118.584 220.5 118.584C220.448 118.533 220.397 118.507 220.345 118.481C220.294 118.456 220.242 118.43 220.191 118.378L210.901 113.026C209.359 114.392 208.088 115.749 206.917 117.039C206.625 117.331 206.351 117.64 206.079 117.945C205.68 118.393 205.288 118.834 204.859 119.202C203.83 120.233 202.698 121.263 201.258 122.087C201.155 122.139 201.078 122.19 201 122.242C200.923 122.293 200.846 122.345 200.743 122.396C200.64 122.448 200.563 122.499 200.486 122.551C200.409 122.602 200.332 122.654 200.229 122.705C199.993 122.823 199.773 122.956 199.557 123.086L199.556 123.086C199.204 123.298 198.862 123.505 198.479 123.632C198.377 123.684 198.299 123.71 198.222 123.735C198.145 123.761 198.068 123.787 197.965 123.838C197.759 123.941 197.656 123.941 197.45 123.941C197.399 123.941 197.322 123.967 197.245 123.993C197.167 124.019 197.09 124.044 197.039 124.044C196.795 124.044 196.615 123.98 196.397 123.902C196.374 123.894 196.351 123.885 196.327 123.877C196.291 123.864 196.254 123.851 196.216 123.838C196.195 123.827 196.175 123.816 196.155 123.804L187.111 118.654V111.938Z" fill="url(#paint10_linear)"/>
<path fill-rule="evenodd" clip-rule="evenodd" d="M196.113 123.838L196.042 123.797C196.065 123.811 196.089 123.825 196.113 123.838ZM187.116 118.636L187.161 120.438V120.541C187.264 120.953 187.264 121.262 187.264 121.674V121.674V121.881V122.087V122.808C187.264 123.014 187.29 123.194 187.315 123.374C187.341 123.555 187.367 123.735 187.367 123.941C187.367 124.095 187.393 124.224 187.418 124.353C187.444 124.482 187.47 124.611 187.47 124.765C187.47 124.92 187.495 125.1 187.521 125.28C187.547 125.46 187.573 125.641 187.573 125.795C187.573 125.95 187.598 126.079 187.624 126.207C187.65 126.336 187.676 126.465 187.676 126.619C187.727 126.774 187.753 126.929 187.778 127.083C187.804 127.238 187.83 127.392 187.881 127.547C187.933 127.65 187.959 127.778 187.984 127.907C188.01 128.036 188.036 128.165 188.087 128.268C188.139 128.422 188.164 128.551 188.19 128.68C188.216 128.809 188.241 128.937 188.293 129.092C188.344 129.195 188.37 129.272 188.396 129.35C188.422 129.427 188.447 129.504 188.499 129.607V129.71V129.813C188.499 130.019 188.602 130.225 188.704 130.431L188.705 130.431C188.705 130.637 188.807 130.843 188.91 130.946L189.013 131.049C189.219 131.461 189.425 131.77 189.631 132.08L189.631 132.08H189.734C189.939 132.286 190.042 132.389 190.145 132.595L190.454 132.904L190.557 133.007L190.66 133.11C190.711 133.161 190.788 133.213 190.865 133.264C190.943 133.316 191.02 133.367 191.071 133.419C191.174 133.419 191.38 133.522 191.483 133.625H191.586C191.736 133.625 191.832 133.68 191.953 133.75C191.997 133.776 192.045 133.803 192.1 133.831C192.306 133.934 192.512 134.037 192.718 134.037C192.82 134.037 192.923 134.063 193.026 134.088C193.129 134.114 193.232 134.14 193.335 134.14H193.952H194.673C194.878 134.14 195.187 134.14 195.393 134.037C195.496 133.985 195.624 133.96 195.753 133.934C195.882 133.908 196.01 133.882 196.113 133.831H196.216C196.319 133.779 196.422 133.754 196.525 133.728C196.628 133.702 196.73 133.676 196.833 133.625C196.936 133.573 197.065 133.522 197.194 133.47C197.322 133.419 197.451 133.367 197.554 133.316L197.657 133.213L197.862 133.11C198.068 133.11 198.274 133.007 198.48 132.904C198.634 132.801 198.788 132.723 198.943 132.646C199.097 132.569 199.251 132.492 199.406 132.389L199.509 132.286C199.612 132.183 199.714 132.183 199.714 132.183C199.766 132.131 199.843 132.105 199.92 132.08C199.997 132.054 200.075 132.028 200.126 131.977C204.007 129.797 206.494 127.182 208.71 124.852L208.711 124.851C208.904 124.649 209.094 124.448 209.284 124.25L209.342 124.188C211.171 122.256 212.809 120.524 215.355 118.893L215.458 118.79C215.561 118.738 215.663 118.661 215.766 118.584L215.766 118.584L215.766 118.584C215.869 118.507 215.972 118.429 216.075 118.378C217.721 117.451 219.162 117.451 220.294 118.069L211.158 112.805C209.5 114.248 208.153 115.683 206.917 117.043C206.626 117.335 206.351 117.644 206.08 117.949L206.08 117.949C205.68 118.398 205.288 118.839 204.859 119.207C203.83 120.237 202.698 121.267 201.258 122.091C201.155 122.143 201.078 122.194 201.001 122.246C200.923 122.297 200.846 122.349 200.743 122.4C200.64 122.452 200.563 122.503 200.486 122.555C200.409 122.607 200.332 122.658 200.229 122.71C199.994 122.827 199.773 122.96 199.557 123.091L199.557 123.091L199.557 123.091C199.204 123.303 198.862 123.509 198.48 123.637C198.377 123.688 198.3 123.714 198.222 123.74C198.145 123.766 198.068 123.791 197.965 123.843C197.759 123.946 197.656 123.946 197.451 123.946H197.451C197.399 123.946 197.322 123.972 197.245 123.997L197.245 123.997C197.168 124.023 197.091 124.049 197.039 124.049C196.795 124.049 196.615 123.984 196.398 123.906C196.34 123.886 196.28 123.864 196.216 123.843C194.878 123.122 194.261 120.031 194.261 111.686V105.809C194.227 105.826 194.192 105.844 194.158 105.861V111.682C194.158 119.775 194.753 123.001 196.042 123.797L187.116 118.636Z" fill="#7AB2C3"/>
<path opacity="0.3" d="M112.196 139.983L90.2706 127.322C90.3736 127.219 90.3736 127.116 90.4765 126.91C90.5794 126.704 90.6824 126.498 90.7853 126.292C90.8883 125.983 91.0941 125.778 91.1971 125.469C91.4029 125.16 91.6088 124.851 91.8147 124.542C91.9176 124.439 91.9176 124.336 92.0206 124.234C92.2264 123.925 92.4323 123.616 92.6382 123.41C92.7411 123.307 92.7411 123.204 92.8441 123.101C92.947 122.895 93.0499 122.792 93.1529 122.689C93.2558 122.484 93.4617 122.278 93.5646 122.072C93.7705 121.866 93.9764 121.557 94.1822 121.351C94.2852 121.248 94.3881 121.145 94.3881 121.042C94.4911 120.94 94.4911 120.94 94.594 120.837C94.6969 120.734 94.7999 120.631 94.9028 120.528C95.0057 120.425 95.1087 120.322 95.3146 120.116L95.4175 120.013C95.5204 119.91 95.7263 119.704 95.8292 119.601C95.8292 119.601 95.8292 119.601 95.9322 119.601C96.0351 119.498 96.1381 119.498 96.241 119.395C96.4469 119.19 96.6527 119.087 96.8586 118.881C96.9616 118.778 97.0645 118.675 97.2704 118.572C97.4762 118.366 97.6821 118.263 97.9909 118.16L165.106 79.5587L187.032 92.22L157.489 109.205L119.711 131.027C119.402 131.233 119.093 131.336 118.887 131.542C118.681 131.748 118.373 131.954 118.167 132.16C118.064 132.263 117.858 132.366 117.755 132.469C117.549 132.674 117.24 132.88 117.034 133.086C116.726 133.395 116.417 133.601 116.211 133.91C115.593 134.527 115.079 135.248 114.461 136.071C114.255 136.38 114.049 136.689 113.843 136.998C113.226 137.924 112.711 138.954 112.196 139.983Z" fill="white"/>
<path d="M31.8247 191.184C31.8247 191.184 32.4414 179.723 39.7387 174.895C47.036 170.068 61.3858 165.941 61.3858 165.941C61.3858 165.941 64.6531 171.449 66.058 176.055C67.4629 180.662 64.0922 190.314 64.0922 190.314L31.8247 191.184Z" fill="url(#paint11_linear)"/>
<path d="M74.303 389.029C74.303 389.029 86.6506 383.466 92.8245 383.26C98.9983 382.951 99.5128 390.162 92.8245 395.828C86.1362 401.392 80.9913 402.113 75.4349 404.379C70.4958 406.44 68.7466 406.543 64.7336 403.967C59.4859 400.567 63.7046 391.502 63.7046 391.502L74.303 389.029Z" fill="#305F6D"/>
<path d="M38.4947 367.807C38.4947 367.807 48.3728 363.686 54.4438 363.377C60.6176 363.068 62.7784 368.425 56.0901 373.988C49.4018 379.551 45.183 380.787 39.6266 383.054C34.6876 385.114 32.9383 385.217 28.9253 382.642C23.4718 379.242 27.6906 370.176 27.8964 370.176L38.4947 367.807Z" fill="#305F6D"/>
<path d="M75.1263 245.727C75.1263 245.727 85.9305 304.14 85.9305 322.58C85.9305 354.929 85.6218 389.029 85.6218 389.029C85.6218 389.029 80.2712 394.695 75.0234 394.695C63.2932 394.695 62.0584 388.823 62.0584 388.823C62.0584 388.823 61.8526 350.293 60.8236 332.676C60.1034 320.52 59.3831 303.316 54.5469 289.099C54.444 303.625 54.444 308.364 53.2093 324.126C52.2832 335.767 47.4471 367.188 47.2413 369.249C43.537 373.782 32.0125 376.872 26.1474 370.279C26.559 365.128 29.8517 328.865 29.4401 310.115C29.0285 292.807 24.6039 252.011 34.482 243.976C43.1254 237.073 75.1263 245.727 75.1263 245.727Z" fill="url(#paint12_linear)"/>
<path d="M61.3378 140.646C57.0162 137.658 48.7844 138.585 45.183 146.209C43.228 150.433 46.0062 161.765 46.4178 169.698C46.7265 176.085 44.6685 179.794 44.6685 179.794C44.6685 179.794 44.6685 179.794 50.1221 182.06C55.5756 184.327 61.3378 182.06 61.3378 182.06L61.132 172.273C61.132 172.273 66.9972 171.346 68.0261 170.419C70.4956 168.152 71.8333 161.353 70.7014 152.596C69.0551 139.513 62.8813 141.779 61.3378 140.646Z" fill="#FFD0CA"/>
<path d="M77.5958 206.682C76.9784 195.453 75.0233 193.29 72.8625 188.757C70.8046 184.224 61.2352 179.382 61.2352 179.382C61.2352 179.382 55.0614 179.279 50.1223 177.527C45.5948 175.982 44.1543 170.831 40.3471 174.128C30.2632 182.988 29.3371 190.302 30.3661 202.768C30.8806 209.155 31.1893 218.942 31.498 235.116C31.7038 246.036 29.8516 253.351 28.3082 257.884C35.3052 265.095 53.1063 269.834 62.0583 267.465C67.409 266.022 75.4349 262.829 79.0363 258.399C77.4929 250.466 78.4189 222.341 77.5958 206.682Z" fill="url(#paint13_linear)"/>
<path d="M61.2352 176.703C61.2352 176.703 53.8267 176.394 48.476 173.613C41.6848 170.213 40.4501 174.231 40.4501 174.231C40.4501 174.231 43.9486 181.442 49.505 183.193C55.0614 184.945 60.1034 184.636 65.6598 181.957C65.6598 178.351 61.2352 176.703 61.2352 176.703Z" fill="url(#paint14_linear)"/>
<path d="M66.6887 155.996C67.306 153.833 68.8495 148.682 69.2611 146.724C69.6727 144.355 69.7756 140.852 66.5858 137.452C63.2931 134.053 52.0773 133.023 47.9614 135.392C43.8455 137.761 35.2022 142.088 38.2891 156.099C40.7586 167.431 43.1253 168.771 46.5209 171.449C49.5049 173.819 54.7526 174.334 54.7526 174.334C54.7526 174.334 57.7366 172.17 58.2511 167.947C58.4569 166.607 58.2511 162.486 58.2511 162.486C58.2511 162.486 55.2671 156.511 57.5308 154.451C60.0004 152.184 62.5728 155.79 63.0873 157.232C65.1452 162.177 67.1002 164.547 66.6887 155.996Z" fill="#305F6D"/>
<path d="M142.73 149.609C138.305 151.051 135.835 151.772 135.835 151.772C135.835 151.772 136.556 150.124 136.967 147.651C137.482 145.179 136.144 145.179 134.909 148.167C133.778 151.051 128.221 159.396 128.221 159.396C123.282 163.62 108.774 173.201 103.629 175.57C95.4999 179.279 72.451 190.199 71.8336 190.096C71.8336 190.096 75.0234 208.949 82.5349 205.961C90.0464 203.077 106.51 190.92 111.861 186.284C117.623 181.442 129.25 168.668 133.675 166.092C137.893 163.62 147.36 161.456 150.447 154.554C151.887 151.257 147.154 148.167 142.73 149.609Z" fill="#FFD0CA"/>
<path d="M88.6056 179.279C74.3029 184.945 72.0392 183.4 66.9972 188.036C61.9553 192.775 62.1611 206.682 66.9972 210.597C73.4797 215.851 89.5317 204.107 94.9852 201.325C100.542 185.769 88.6056 179.279 88.6056 179.279Z" fill="url(#paint15_linear)"/>
<path d="M309.597 69.7691C309.597 69.7691 297.25 68.842 294.986 71.8296C295.295 81.8226 298.587 91.0944 298.69 91.1974C292.208 89.24 282.33 86.2524 277.391 81.4105C275.847 79.8652 272.143 73.0658 271.114 73.2718C266.792 74.3021 272.246 79.8652 271.114 81.7195C269.468 84.2951 264.117 81.9256 259.384 83.4709C253.519 85.4283 251.769 92.0216 259.384 94.3911C262.573 95.4213 269.982 92.5367 276.259 94.082C279.243 94.8032 284.388 97.8938 286.137 99.13C298.896 108.402 305.378 108.402 309.083 108.608C313.713 108.917 313.199 102.633 314.022 98.4089C315.154 92.3307 309.597 69.7691 309.597 69.7691Z" fill="#FFD0CA"/>
<path d="M297.97 47.0013C308.98 48.4436 309.289 60.9091 312.273 77.5984C304.555 81.4102 299.513 82.3374 292.516 79.9679C291.899 76.6713 289.944 70.49 289.841 68.6356C289.429 61.2181 291.899 46.1771 297.97 47.0013Z" fill="#9FC8D5"/>
<defs>
<linearGradient id="paint0_linear" x1="244.193" y1="165.827" x2="274.464" y2="165.827" gradientUnits="userSpaceOnUse">
<stop stop-color="#066EA9"/>
<stop offset="1" stop-color="#1680BB"/>
</linearGradient>
<linearGradient id="paint1_linear" x1="268.391" y1="170.788" x2="310.622" y2="170.788" gradientUnits="userSpaceOnUse">
<stop stop-color="#066EA9"/>
<stop offset="1" stop-color="#1680BB"/>
</linearGradient>
<linearGradient id="paint2_linear" x1="257.516" y1="64.7305" x2="269.041" y2="64.7305" gradientUnits="userSpaceOnUse">
<stop stop-color="#3A2BAA"/>
<stop offset="1" stop-color="#2F1784"/>
</linearGradient>
<linearGradient id="paint3_linear" x1="298.999" y1="30.1595" x2="264.018" y2="119.643" gradientUnits="userSpaceOnUse">
<stop stop-color="#DEF1F7"/>
<stop offset="1" stop-color="#B7DDE9"/>
</linearGradient>
<linearGradient id="paint4_linear" x1="204.558" y1="196.591" x2="229.403" y2="196.591" gradientUnits="userSpaceOnUse">
<stop offset="0.00518135" stop-color="#4ED5FF"/>
<stop offset="1" stop-color="#22ACD7"/>
</linearGradient>
<linearGradient id="paint5_linear" x1="172.361" y1="149.441" x2="229.887" y2="149.441" gradientUnits="userSpaceOnUse">
<stop offset="0.00518135" stop-color="#4ED5FF"/>
<stop offset="1" stop-color="#22ACD7"/>
</linearGradient>
<linearGradient id="paint6_linear" x1="172.248" y1="99.6523" x2="196.166" y2="99.6523" gradientUnits="userSpaceOnUse">
<stop offset="0.00518135" stop-color="#4ED5FF"/>
<stop offset="1" stop-color="#22ACD7"/>
</linearGradient>
<linearGradient id="paint7_linear" x1="172.27" y1="126.349" x2="271.652" y2="126.349" gradientUnits="userSpaceOnUse">
<stop offset="0.00518135" stop-color="#4ED5FF"/>
<stop offset="1" stop-color="#22ACD7"/>
</linearGradient>
<linearGradient id="paint8_linear" x1="118.085" y1="204.637" x2="84.4245" y2="337.551" gradientUnits="userSpaceOnUse">
<stop offset="0.00518135" stop-color="#4ED5FF"/>
<stop offset="1" stop-color="#22ACD7"/>
</linearGradient>
<linearGradient id="paint9_linear" x1="184.472" y1="242.102" x2="111.255" y2="282.332" gradientUnits="userSpaceOnUse">
<stop offset="0.00518135" stop-color="#4ED5FF"/>
<stop offset="1" stop-color="#22ACD7"/>
</linearGradient>
<linearGradient id="paint10_linear" x1="186.303" y1="97.109" x2="116.33" y2="218.307" gradientUnits="userSpaceOnUse">
<stop stop-color="#DEF1F7"/>
<stop offset="1" stop-color="#B7DDE9"/>
</linearGradient>
<linearGradient id="paint11_linear" x1="38.9415" y1="173.802" x2="64.6419" y2="189.525" gradientUnits="userSpaceOnUse">
<stop stop-color="#066EA9"/>
<stop offset="1" stop-color="#1680BB"/>
</linearGradient>
<linearGradient id="paint12_linear" x1="56.0389" y1="275.461" x2="56.039" y2="378.746" gradientUnits="userSpaceOnUse">
<stop stop-color="#B0D9E7"/>
<stop offset="1" stop-color="#8AC9DC"/>
</linearGradient>
<linearGradient id="paint13_linear" x1="57" y1="179.428" x2="33.9087" y2="260.856" gradientUnits="userSpaceOnUse">
<stop stop-color="#1691D6"/>
<stop offset="1" stop-color="#1680BB"/>
</linearGradient>
<linearGradient id="paint14_linear" x1="40.483" y1="178.25" x2="65.7078" y2="178.25" gradientUnits="userSpaceOnUse">
<stop stop-color="#066EA9"/>
<stop offset="1" stop-color="#1680BB"/>
</linearGradient>
<linearGradient id="paint15_linear" x1="63.3359" y1="195.56" x2="96.523" y2="195.56" gradientUnits="userSpaceOnUse">
<stop stop-color="#066EA9"/>
<stop offset="1" stop-color="#1680BB"/>
</linearGradient>
</defs>
</svg>
